# This file uses centimeters as units for non-parametric coordinates.

mtllib falling block.mtl
g default
v -5.113779 13.109437 26.963741
v 5.113779 13.109437 26.963741
v -5.113779 16.677573 26.963741
v 5.113779 16.677573 26.963741
v -5.113779 16.677573 22.530489
v 5.113779 16.677573 22.530489
v -5.113779 13.109437 22.530489
v 5.113779 13.109437 22.530489
vt 0.384885 0.039539
vt 0.615115 0.039539
vt 0.384885 0.269769
vt 0.615115 0.269769
vt 0.384885 0.500000
vt 0.615115 0.500000
vt 0.384885 0.730231
vt 0.615115 0.730231
vt 0.384885 0.960461
vt 0.615115 0.960461
vt 0.845346 0.039539
vt 0.845346 0.269769
vt 0.154654 0.039539
vt 0.154654 0.269769
vn 0.000000 0.000000 1.000000
vn 0.000000 0.000000 1.000000
vn 0.000000 0.000000 1.000000
vn 0.000000 0.000000 1.000000
vn 0.000000 1.000000 0.000000
vn 0.000000 1.000000 0.000000
vn 0.000000 1.000000 0.000000
vn 0.000000 1.000000 0.000000
vn 0.000000 0.000000 -1.000000
vn 0.000000 0.000000 -1.000000
vn 0.000000 0.000000 -1.000000
vn 0.000000 0.000000 -1.000000
vn 0.000000 -1.000000 0.000000
vn 0.000000 -1.000000 0.000000
vn 0.000000 -1.000000 0.000000
vn 0.000000 -1.000000 0.000000
vn 1.000000 0.000000 0.000000
vn 1.000000 0.000000 0.000000
vn 1.000000 0.000000 0.000000
vn 1.000000 0.000000 0.000000
vn -1.000000 0.000000 0.000000
vn -1.000000 0.000000 0.000000
vn -1.000000 0.000000 0.000000
vn -1.000000 0.000000 0.000000
s off
g pCube3
usemtl blinn3SG
f 1/1/1 2/2/2 4/4/3 3/3/4
f 3/3/5 4/4/6 6/6/7 5/5/8
f 5/5/9 6/6/10 8/8/11 7/7/12
f 7/7/13 8/8/14 2/10/15 1/9/16
f 2/2/17 8/11/18 6/12/19 4/4/20
f 7/13/21 1/1/22 3/3/23 5/14/24
