# This file uses centimeters as units for non-parametric coordinates.

mtllib boyUVs.mtl
g default
v -0.301091 1.767292 0.161280
v 0.301091 1.767292 0.161280
v -0.301091 2.274473 0.161280
v 0.301091 2.274473 0.161280
v -0.301091 2.274473 -0.161280
v 0.301091 2.274473 -0.161280
v -0.301091 1.767292 -0.161280
v 0.301091 1.767292 -0.161280
vt 0.188599 0.530508
vt 0.359326 0.530508
vt 0.188599 0.680896
vt 0.359326 0.680896
vt 0.188599 0.831284
vt 0.359326 0.831284
vt 0.188599 0.981672
vt 0.359326 0.981672
vt 0.530053 0.530508
vt 0.530053 0.680896
vt 0.017873 0.530508
vt 0.017873 0.680896
vn 0.000000 0.000000 1.000000
vn 0.000000 0.000000 1.000000
vn 0.000000 0.000000 1.000000
vn 0.000000 0.000000 1.000000
vn 0.000000 1.000000 0.000000
vn 0.000000 1.000000 0.000000
vn 0.000000 1.000000 0.000000
vn 0.000000 1.000000 0.000000
vn 0.000000 0.000000 -1.000000
vn 0.000000 0.000000 -1.000000
vn 0.000000 0.000000 -1.000000
vn 0.000000 0.000000 -1.000000
vn 1.000000 0.000000 0.000000
vn 1.000000 0.000000 0.000000
vn 1.000000 0.000000 0.000000
vn 1.000000 0.000000 0.000000
vn -1.000000 0.000000 0.000000
vn -1.000000 0.000000 0.000000
vn -1.000000 0.000000 0.000000
vn -1.000000 0.000000 0.000000
s off
g pCube6
usemtl initialShadingGroup
f 1/1/1 2/2/2 4/4/3 3/3/4
f 3/3/5 4/4/6 6/6/7 5/5/8
f 5/5/9 6/6/10 8/8/11 7/7/12
f 2/2/13 8/9/14 6/10/15 4/4/16
f 7/11/17 1/1/18 3/3/19 5/12/20
g tweakSet8
v -0.170026 1.433174 0.149892
v 0.087602 1.433174 0.149892
v -0.170026 1.940354 0.149892
v 0.087602 1.940354 0.149892
v -0.170026 1.940354 -0.149892
v 0.087602 1.940354 -0.149892
v -0.170026 1.433174 -0.149892
v 0.087602 1.433174 -0.149892
vt 0.606570 0.018328
vt 0.680297 0.018328
vt 0.606570 0.189054
vt 0.680297 0.189054
vt 0.606570 0.359781
vt 0.680297 0.359781
vt 0.606570 0.530508
vt 0.680297 0.530508
vt 0.754024 0.018328
vt 0.754024 0.189054
vt 0.532842 0.018328
vt 0.532842 0.189054
vn 0.000000 0.000000 1.000000
vn 0.000000 0.000000 1.000000
vn 0.000000 0.000000 1.000000
vn 0.000000 0.000000 1.000000
vn 0.000000 1.000000 0.000000
vn 0.000000 1.000000 0.000000
vn 0.000000 1.000000 0.000000
vn 0.000000 1.000000 0.000000
vn 0.000000 0.000000 -1.000000
vn 0.000000 0.000000 -1.000000
vn 0.000000 0.000000 -1.000000
vn 0.000000 0.000000 -1.000000
vn 1.000000 0.000000 0.000000
vn 1.000000 0.000000 0.000000
vn 1.000000 0.000000 0.000000
vn 1.000000 0.000000 0.000000
vn -1.000000 0.000000 0.000000
vn -1.000000 0.000000 0.000000
vn -1.000000 0.000000 0.000000
vn -1.000000 0.000000 0.000000
s off
g pCube7
usemtl initialShadingGroup
f 9/13/21 10/14/22 12/16/23 11/15/24
f 11/15/25 12/16/26 14/18/27 13/17/28
f 13/17/29 14/18/30 16/20/31 15/19/32
f 10/14/33 16/21/34 14/22/35 12/16/36
f 15/23/37 9/13/38 11/15/39 13/24/40
g tweakSet9
v -0.301091 0.973725 0.161280
v 0.301091 0.973725 0.161280
v -0.301091 1.666955 0.161280
v 0.301091 1.666955 0.161280
v -0.301091 1.666955 -0.161280
v 0.301091 1.666955 -0.161280
v -0.301091 0.973725 -0.161280
v 0.301091 0.973725 -0.161280
vt 0.188599 0.018328
vt 0.359326 0.018328
vt 0.188599 0.189054
vt 0.359326 0.189054
vt 0.188599 0.359781
vt 0.359326 0.359781
vt 0.188599 0.530508
vt 0.359326 0.530508
vt 0.530053 0.018328
vt 0.530053 0.189054
vt 0.017873 0.018328
vt 0.017873 0.189054
vn 0.000000 0.000000 1.000000
vn 0.000000 0.000000 1.000000
vn 0.000000 0.000000 1.000000
vn 0.000000 0.000000 1.000000
vn 0.000000 1.000000 0.000000
vn 0.000000 1.000000 0.000000
vn 0.000000 1.000000 0.000000
vn 0.000000 1.000000 0.000000
vn 0.000000 0.000000 -1.000000
vn 0.000000 0.000000 -1.000000
vn 0.000000 0.000000 -1.000000
vn 0.000000 0.000000 -1.000000
vn 1.000000 0.000000 0.000000
vn 1.000000 0.000000 0.000000
vn 1.000000 0.000000 0.000000
vn 1.000000 0.000000 0.000000
vn -1.000000 0.000000 0.000000
vn -1.000000 0.000000 0.000000
vn -1.000000 0.000000 0.000000
vn -1.000000 0.000000 0.000000
s off
g pCube5
usemtl initialShadingGroup
f 17/25/41 18/26/42 20/28/43 19/27/44
f 19/27/45 20/28/46 22/30/47 21/29/48
f 21/29/49 22/30/50 24/32/51 23/31/52
f 18/26/53 24/33/54 22/34/55 20/28/56
f 23/35/57 17/25/58 19/27/59 21/36/60
g tweakSet2
v -0.264425 1.008580 0.280814
v 0.141022 1.008580 0.280814
v -0.264425 1.592759 0.280814
v 0.141022 1.592759 0.280814
v 0.141022 1.592759 0.196134
v -0.264425 1.592759 0.196134
v -0.264425 1.008580 0.196134
v 0.141022 1.008580 0.196134
vt 0.747487 0.359781
vt 0.877536 0.359781
vt 0.747487 0.530508
vt 0.877536 0.530508
vt 0.942561 0.530508
vt 0.682462 0.530508
vt 0.682462 0.359781
vt 0.942561 0.359781
vn 0.000000 0.000000 1.000000
vn 0.000000 0.000000 1.000000
vn 0.000000 0.000000 1.000000
vn 0.000000 0.000000 1.000000
vn 1.000000 0.000000 0.000000
vn 1.000000 0.000000 0.000000
vn 1.000000 0.000000 0.000000
vn 1.000000 0.000000 0.000000
vn -1.000000 0.000000 0.000000
vn -1.000000 0.000000 0.000000
vn -1.000000 0.000000 0.000000
vn -1.000000 0.000000 0.000000
s off
g pCube8
usemtl initialShadingGroup
f 25/37/61 26/38/62 28/40/63 27/39/64
f 26/38/65 32/44/66 29/41/67 28/40/68
f 31/43/69 25/37/70 27/39/71 30/42/72
g tweakSet3
v -0.173966 0.573323 0.241794
v 0.064033 0.573323 0.241794
v -0.173966 1.046296 0.241794
v 0.064033 1.046296 0.241794
vt 0.017873 0.680896
vt 0.111939 0.680896
vt 0.017873 0.851623
vt 0.111939 0.851623
vn 0.000000 0.000000 1.000000
vn 0.000000 0.000000 1.000000
vn 0.000000 0.000000 1.000000
vn 0.000000 0.000000 1.000000
s off
g pCube9
usemtl initialShadingGroup
f 33/45/73 34/46/74 36/48/75 35/47/76
g tweakSet1
v -0.202724 0.275854 0.152135
v 0.202724 0.275854 0.152135
v -0.202724 0.966168 0.152135
v 0.202724 0.966168 0.152135
v 0.202724 0.966168 0.067455
v -0.202724 0.966168 0.067455
v -0.202724 0.275854 0.067455
v 0.202724 0.275854 0.067455
vt 0.413290 0.189054
vt 0.515178 0.189054
vt 0.413290 0.359781
vt 0.515178 0.359781
vt 0.566122 0.359781
vt 0.362346 0.359781
vt 0.362346 0.189054
vt 0.566122 0.189054
vn 0.000000 0.000000 1.000000
vn 0.000000 0.000000 1.000000
vn 0.000000 0.000000 1.000000
vn 0.000000 0.000000 1.000000
vn 1.000000 0.000000 0.000000
vn 1.000000 0.000000 0.000000
vn 1.000000 0.000000 0.000000
vn 1.000000 0.000000 0.000000
vn -1.000000 0.000000 0.000000
vn -1.000000 0.000000 0.000000
vn -1.000000 0.000000 0.000000
vn -1.000000 0.000000 0.000000
s off
g pCube1
usemtl initialShadingGroup
f 37/49/77 38/50/78 40/52/79 39/51/80
f 38/50/81 44/56/82 41/53/83 40/52/84
f 43/55/85 37/49/86 39/51/87 42/54/88
g tweakSet5
v 0.075809 0.480183 0.241794
v 0.260154 0.480183 0.241794
v 0.075809 0.557813 0.241794
v 0.260154 0.557813 0.241794
vt 0.839040 0.092055
vt 0.920590 0.092055
vt 0.839040 0.125030
vt 0.920590 0.125030
vn 0.000000 0.000000 1.000000
vn 0.000000 0.000000 1.000000
vn 0.000000 0.000000 1.000000
vn 0.000000 0.000000 1.000000
s off
g pCube18
usemtl initialShadingGroup
f 45/57/89 46/58/90 48/60/91 47/59/92
g tweakSet4
v -0.173966 0.261919 0.241794
v 0.064033 0.261919 0.241794
v -0.173966 0.566352 0.241794
v 0.064033 0.566352 0.241794
vt 0.832081 0.018328
vt 0.905809 0.018328
vt 0.832081 0.092055
vt 0.905809 0.092055
vn 0.000000 0.000000 1.000000
vn 0.000000 0.000000 1.000000
vn 0.000000 0.000000 1.000000
vn 0.000000 0.000000 1.000000
s off
g pCube10
usemtl initialShadingGroup
f 49/61/93 50/62/94 52/64/95 51/63/96
g tweakSet6
v -0.124522 -0.263257 0.112911
v 0.124522 -0.263257 0.112911
v -0.124522 0.296973 0.112911
v 0.124522 0.296973 0.112911
vt 0.877315 0.530508
vt 0.957301 0.530508
vt 0.877315 0.701235
vt 0.957301 0.701235
vn 0.000000 0.000000 1.000000
vn 0.000000 0.000000 1.000000
vn 0.000000 0.000000 1.000000
vn 0.000000 0.000000 1.000000
s off
g pCube2
usemtl initialShadingGroup
f 53/65/97 54/66/98 56/68/99 55/67/100
g tweakSet7
v 0.108134 -0.349681 0.112911
v 0.220065 -0.349681 0.112911
v 0.108134 -0.267925 0.112911
v 0.220065 -0.267925 0.112911
vt 0.908631 0.050240
vt 0.953514 0.050240
vt 0.908631 0.082152
vt 0.953514 0.082152
vn 0.000000 0.000000 1.000000
vn 0.000000 0.000000 1.000000
vn 0.000000 0.000000 1.000000
vn 0.000000 0.000000 1.000000
s off
g pCube4
usemtl initialShadingGroup
f 57/69/101 58/70/102 60/72/103 59/71/104
g default
v -0.116528 -0.349681 0.112911
v 0.102113 -0.349681 0.112911
v -0.116528 -0.267925 0.112911
v 0.102113 -0.267925 0.112911
vt 0.755532 0.125030
vt 0.837696 0.125030
vt 0.755532 0.152499
vt 0.837696 0.152499
vn 0.000000 0.000000 1.000000
vn 0.000000 0.000000 1.000000
vn 0.000000 0.000000 1.000000
vn 0.000000 0.000000 1.000000
s off
g pCube3
usemtl initialShadingGroup
f 61/73/105 62/74/106 64/76/107 63/75/108
g default
v 0.108134 -0.349681 -0.099067
v 0.220065 -0.349681 -0.099067
v 0.108134 -0.267925 -0.099067
v 0.220065 -0.267925 -0.099067
vt 0.908631 0.018328
vt 0.953514 0.018328
vt 0.908631 0.050240
vt 0.953514 0.050240
vn 0.000000 0.000000 1.000000
vn 0.000000 0.000000 1.000000
vn 0.000000 0.000000 1.000000
vn 0.000000 0.000000 1.000000
s off
g pCube30
usemtl initialShadingGroup
f 65/77/109 66/78/110 68/80/111 67/79/112
g default
v -0.124522 -0.263257 -0.099067
v 0.124522 -0.263257 -0.099067
v -0.124522 0.296973 -0.099067
v 0.124522 0.296973 -0.099067
vt 0.362346 0.746801
vt 0.442331 0.746801
vt 0.362346 0.917528
vt 0.442331 0.917528
vn 0.000000 0.000000 1.000000
vn 0.000000 0.000000 1.000000
vn 0.000000 0.000000 1.000000
vn 0.000000 0.000000 1.000000
s off
g pCube29
usemtl initialShadingGroup
f 69/81/113 70/82/114 72/84/115 71/83/116
g default
v -0.116528 -0.349681 -0.099067
v 0.102113 -0.349681 -0.099067
v -0.116528 -0.267925 -0.099067
v 0.102113 -0.267925 -0.099067
vt 0.839040 0.125030
vt 0.921205 0.125030
vt 0.839040 0.152499
vt 0.921205 0.152499
vn 0.000000 0.000000 1.000000
vn 0.000000 0.000000 1.000000
vn 0.000000 0.000000 1.000000
vn 0.000000 0.000000 1.000000
s off
g pCube31
usemtl initialShadingGroup
f 73/85/117 74/86/118 76/88/119 75/87/120
g default
v 0.075809 0.480183 -0.235171
v 0.260154 0.480183 -0.235171
v 0.075809 0.557813 -0.235171
v 0.260154 0.557813 -0.235171
vt 0.755532 0.092055
vt 0.837082 0.092055
vt 0.755532 0.125030
vt 0.837082 0.125030
vn 0.000000 0.000000 1.000000
vn 0.000000 0.000000 1.000000
vn 0.000000 0.000000 1.000000
vn 0.000000 0.000000 1.000000
s off
g pCube27
usemtl initialShadingGroup
f 77/89/121 78/90/122 80/92/123 79/91/124
g default
v -0.202724 0.275854 -0.059843
v 0.202724 0.275854 -0.059843
v -0.202724 0.966168 -0.059843
v 0.202724 0.966168 -0.059843
v 0.202724 0.966168 -0.144523
v -0.202724 0.966168 -0.144523
v -0.202724 0.275854 -0.144523
v 0.202724 0.275854 -0.144523
vt 0.757763 0.746801
vt 0.859651 0.746801
vt 0.757763 0.917528
vt 0.859651 0.917528
vt 0.910595 0.917528
vt 0.706818 0.917528
vt 0.706818 0.746801
vt 0.910595 0.746801
vn 0.000000 0.000000 1.000000
vn 0.000000 0.000000 1.000000
vn 0.000000 0.000000 1.000000
vn 0.000000 0.000000 1.000000
vn 1.000000 0.000000 0.000000
vn 1.000000 0.000000 0.000000
vn 1.000000 0.000000 0.000000
vn 1.000000 0.000000 0.000000
vn -1.000000 0.000000 0.000000
vn -1.000000 0.000000 0.000000
vn -1.000000 0.000000 0.000000
vn -1.000000 0.000000 0.000000
s off
g pCube28
usemtl initialShadingGroup
f 81/93/125 82/94/126 84/96/127 83/95/128
f 82/94/129 88/100/130 85/97/131 84/96/132
f 87/99/133 81/93/134 83/95/135 86/98/136
g default
v -0.272767 0.789273 0.152293
v 0.272767 0.789273 0.152293
v -0.272767 1.061465 0.152293
v 0.272767 1.061465 0.152293
v -0.272767 1.061465 -0.152293
v 0.272767 1.061465 -0.152293
v -0.272767 0.789273 -0.152293
v 0.272767 0.789273 -0.152293
vt 0.533072 0.680896
vt 0.703799 0.680896
vt 0.533072 0.746801
vt 0.703799 0.746801
vt 0.533072 0.812706
vt 0.703799 0.812706
vt 0.533072 0.878611
vt 0.703799 0.878611
vt 0.874526 0.680896
vt 0.874526 0.746801
vt 0.362346 0.680896
vt 0.362346 0.746801
vn 0.000000 0.000000 1.000000
vn 0.000000 0.000000 1.000000
vn 0.000000 0.000000 1.000000
vn 0.000000 0.000000 1.000000
vn 0.000000 1.000000 0.000000
vn 0.000000 1.000000 0.000000
vn 0.000000 1.000000 0.000000
vn 0.000000 1.000000 0.000000
vn 0.000000 0.000000 -1.000000
vn 0.000000 0.000000 -1.000000
vn 0.000000 0.000000 -1.000000
vn 0.000000 0.000000 -1.000000
vn 1.000000 0.000000 0.000000
vn 1.000000 0.000000 0.000000
vn 1.000000 0.000000 0.000000
vn 1.000000 0.000000 0.000000
vn -1.000000 0.000000 0.000000
vn -1.000000 0.000000 0.000000
vn -1.000000 0.000000 0.000000
vn -1.000000 0.000000 0.000000
s off
g pCube23
usemtl initialShadingGroup
f 89/101/137 90/102/138 92/104/139 91/103/140
f 91/103/141 92/104/142 94/106/143 93/105/144
f 93/105/145 94/106/146 96/108/147 95/107/148
f 90/102/149 96/109/150 94/110/151 92/104/152
f 95/111/153 89/101/154 91/103/155 93/112/156
g default
v -0.173966 0.261919 -0.235171
v 0.064033 0.261919 -0.235171
v -0.173966 0.566352 -0.235171
v 0.064033 0.566352 -0.235171
vt 0.755532 0.018328
vt 0.829259 0.018328
vt 0.755532 0.092055
vt 0.829259 0.092055
vn 0.000000 0.000000 1.000000
vn 0.000000 0.000000 1.000000
vn 0.000000 0.000000 1.000000
vn 0.000000 0.000000 1.000000
s off
g pCube26
usemtl initialShadingGroup
f 97/113/157 98/114/158 100/116/159 99/115/160
g default
v -0.173966 0.573323 -0.235171
v 0.064033 0.573323 -0.235171
v -0.173966 1.046296 -0.235171
v 0.064033 1.046296 -0.235171
vt 0.017873 0.189054
vt 0.111939 0.189054
vt 0.017873 0.359781
vt 0.111939 0.359781
vn 0.000000 0.000000 1.000000
vn 0.000000 0.000000 1.000000
vn 0.000000 0.000000 1.000000
vn 0.000000 0.000000 1.000000
s off
g pCube25
usemtl initialShadingGroup
f 101/117/161 102/118/162 104/120/163 103/119/164
g default
v -0.264425 1.008580 -0.196151
v 0.141022 1.008580 -0.196151
v -0.264425 1.592759 -0.196151
v 0.141022 1.592759 -0.196151
v 0.141022 1.592759 -0.280831
v -0.264425 1.592759 -0.280831
v -0.264425 1.008580 -0.280831
v 0.141022 1.008580 -0.280831
vt 0.747487 0.189054
vt 0.877536 0.189054
vt 0.747487 0.359781
vt 0.877536 0.359781
vt 0.942561 0.359781
vt 0.682462 0.359781
vt 0.682462 0.189054
vt 0.942561 0.189054
vn 0.000000 0.000000 1.000000
vn 0.000000 0.000000 1.000000
vn 0.000000 0.000000 1.000000
vn 0.000000 0.000000 1.000000
vn 1.000000 0.000000 0.000000
vn 1.000000 0.000000 0.000000
vn 1.000000 0.000000 0.000000
vn 1.000000 0.000000 0.000000
vn -1.000000 0.000000 0.000000
vn -1.000000 0.000000 0.000000
vn -1.000000 0.000000 0.000000
vn -1.000000 0.000000 0.000000
s off
g pCube24
usemtl initialShadingGroup
f 105/121/165 106/122/166 108/124/167 107/123/168
f 106/122/169 112/128/170 109/125/171 108/124/172
f 111/127/173 105/121/174 107/123/175 110/126/176
